<svg width="23" height="14" viewBox="0 0 23 14" fill="none" xmlns="http://www.w3.org/2000/svg">
<path d="M7.10787 13.9551C11.0334 13.9551 14.2157 10.8312 14.2157 6.97756C14.2157 3.12396 11.0334 0 7.10787 0C3.1823 0 0 3.12396 0 6.97756C0 10.8312 3.1823 13.9551 7.10787 13.9551Z" fill="#EB001B"/>
<path d="M15.2309 13.9551C19.1565 13.9551 22.3388 10.8312 22.3388 6.97756C22.3388 3.12396 19.1565 0 15.2309 0C11.3054 0 8.12305 3.12396 8.12305 6.97756C8.12305 10.8312 11.3054 13.9551 15.2309 13.9551Z" fill="#02A1DF"/>
<path d="M14.2155 6.97763C14.2155 4.58532 12.997 2.49205 11.1693 1.2959C9.34154 2.59173 8.12305 4.685 8.12305 6.97763C8.12305 9.27026 9.34154 11.4632 11.1693 12.6594C12.997 11.4632 14.2155 9.36994 14.2155 6.97763Z" fill="#7673C0"/>
</svg>
