<svg width="23" height="15" viewBox="0 0 23 15" fill="none" xmlns="http://www.w3.org/2000/svg">
<path d="M7.52236 14.9395C11.3694 14.9395 14.4881 11.8155 14.4881 7.96194C14.4881 4.10834 11.3694 0.984375 7.52236 0.984375C3.6753 0.984375 0.556641 4.10834 0.556641 7.96194C0.556641 11.8155 3.6753 14.9395 7.52236 14.9395Z" fill="#EB001B"/>
<path d="M15.4833 14.9395C19.3304 14.9395 22.449 11.8155 22.449 7.96194C22.449 4.10834 19.3304 0.984375 15.4833 0.984375C11.6362 0.984375 8.51758 4.10834 8.51758 7.96194C8.51758 11.8155 11.6362 14.9395 15.4833 14.9395Z" fill="#F79E1B"/>
<path d="M14.4882 7.962C14.4882 5.5697 13.2941 3.47643 11.5029 2.28027C9.7117 3.57611 8.51758 5.66938 8.51758 7.962C8.51758 10.2546 9.7117 12.4476 11.5029 13.6437C13.2941 12.4476 14.4882 10.3543 14.4882 7.962Z" fill="#FF5F00"/>
</svg>
