<svg width="15" height="17" viewBox="0 0 15 17" fill="none" xmlns="http://www.w3.org/2000/svg">
<path fill-rule="evenodd" clip-rule="evenodd" d="M2.75 5.3335C2.75 4.07372 3.25045 2.86554 4.14124 1.97474C5.03204 1.08394 6.24022 0.583496 7.5 0.583496C8.75978 0.583496 9.96796 1.08394 10.8588 1.97474C11.7496 2.86554 12.25 4.07372 12.25 5.3335H13.0417C13.4616 5.3335 13.8643 5.50031 14.1613 5.79724C14.4582 6.09418 14.625 6.4969 14.625 6.91683V14.8335C14.625 15.2534 14.4582 15.6561 14.1613 15.9531C13.8643 16.25 13.4616 16.4168 13.0417 16.4168H1.95833C1.53841 16.4168 1.13568 16.25 0.838748 15.9531C0.541815 15.6561 0.375 15.2534 0.375 14.8335V6.91683C0.375 6.4969 0.541815 6.09418 0.838748 5.79724C1.13568 5.50031 1.53841 5.3335 1.95833 5.3335H2.75ZM7.5 2.16683C8.33985 2.16683 9.14531 2.50046 9.73917 3.09432C10.333 3.68819 10.6667 4.49364 10.6667 5.3335H4.33333C4.33333 4.49364 4.66696 3.68819 5.26083 3.09432C5.85469 2.50046 6.66015 2.16683 7.5 2.16683ZM9.08333 10.0835C9.08333 10.3614 9.01016 10.6344 8.8712 10.8751C8.73223 11.1158 8.53236 11.3157 8.29167 11.4547V12.4585C8.29167 12.6685 8.20826 12.8698 8.05979 13.0183C7.91133 13.1668 7.70996 13.2502 7.5 13.2502C7.29004 13.2502 7.08867 13.1668 6.94021 13.0183C6.79174 12.8698 6.70833 12.6685 6.70833 12.4585V11.4547C6.4065 11.2804 6.17061 11.0114 6.03724 10.6894C5.90388 10.3674 5.88048 10.0104 5.97069 9.67369C6.0609 9.33704 6.25967 9.03955 6.53617 8.82737C6.81268 8.61519 7.15147 8.50018 7.5 8.50016C7.91993 8.50016 8.32265 8.66698 8.61959 8.96391C8.91652 9.26084 9.08333 9.66357 9.08333 10.0835Z" fill="#A6A6A6"/>
</svg>
