<svg width="260" height="140" viewBox="0 0 260 140" fill="none" xmlns="http://www.w3.org/2000/svg">
<path d="M0 0H260V140H0V0Z" fill="#6772E5"/>
<path fill-rule="evenodd" clip-rule="evenodd" d="M132.802 44C129.769 43.9927 127.388 46.3215 127.38 49.2927C127.373 52.2492 129.755 54.6364 132.713 54.6437C135.701 54.651 138.113 52.293 138.12 49.3584C138.12 46.3799 135.768 44.0073 132.802 44ZM104.251 81.2895V81.6764C104.251 82.2732 104.251 82.8696 104.25 83.4657C104.249 85.254 104.248 87.0403 104.259 88.8306C104.259 89.1153 104.177 89.2248 103.896 89.2978C100.864 90.0716 97.8088 90.1738 94.754 89.4949C91.3812 88.743 89.3915 86.6113 88.7258 83.2971C88.5039 82.2093 88.4003 81.0778 88.3929 79.9682C88.366 76.5278 88.3704 73.0836 88.3748 69.6412V69.6409V69.6406V69.6402V69.6395V69.6388V69.638C88.3765 68.3481 88.3781 67.0584 88.3781 65.7693V65.2509H84.1621C84.4833 63.3187 84.7946 61.4207 85.1082 59.5089L85.1085 59.5075L85.1085 59.5074L85.1086 59.5069L85.316 58.2427C85.6192 58.1941 85.9225 58.1438 86.2257 58.0935L86.226 58.0935C86.8324 57.9929 87.4389 57.8923 88.0453 57.8047C88.3116 57.7682 88.4151 57.6806 88.4595 57.4105C88.6192 56.4208 88.783 55.4324 88.9468 54.4442C89.1623 53.1437 89.3778 51.8436 89.5838 50.541C89.643 50.176 89.7909 50.0811 90.1311 50.0227C92.1937 49.701 94.2519 49.3667 96.3091 49.0325L96.3096 49.0324L96.3099 49.0323L96.3101 49.0323L96.3103 49.0323C96.9603 48.9267 97.6101 48.8211 98.26 48.716C98.2828 48.7115 98.3057 48.7097 98.3373 48.7074L98.3373 48.7074C98.3568 48.7059 98.3797 48.7042 98.4079 48.7014V57.7171H104.947C104.532 60.243 104.125 62.7032 103.711 65.2071H98.4227V65.6379C98.4227 66.6839 98.4223 67.7294 98.4218 68.7748L98.4218 68.7959V68.7966V68.7972V68.7979C98.4204 71.9544 98.419 75.1087 98.4301 78.2672C98.4301 78.8293 98.5041 79.4133 98.6372 79.9609C98.8887 80.9756 99.5988 81.5377 100.649 81.6691C101.675 81.7957 102.664 81.6001 103.655 81.4041L103.655 81.4041L103.793 81.3768C103.842 81.3671 103.891 81.3575 103.941 81.3479C103.96 81.3445 103.98 81.341 104.001 81.3374L104.001 81.3374C104.069 81.3256 104.15 81.3118 104.251 81.2895ZM141.9 57.7536H150.835C150.924 58.2683 151.013 58.7811 151.101 59.2939C151.19 59.8068 151.279 60.3196 151.368 60.8343C151.557 60.6705 151.742 60.5044 151.926 60.3395L151.926 60.3391C152.324 59.9822 152.716 59.6303 153.136 59.3158C156.516 56.7973 160.162 56.425 163.979 58.1843C166.08 59.1552 167.381 60.9365 168.306 62.9878C169.164 64.9005 169.571 66.9154 169.778 68.9813C170.015 71.3612 170.029 73.741 169.778 76.1209C169.43 79.3914 168.631 82.5159 166.612 85.217C164.667 87.8158 162.034 89.2832 158.816 89.7723C156.664 90.1008 154.541 89.9037 152.455 89.3197C152.412 89.3076 152.368 89.2968 152.321 89.2851L152.32 89.285L152.32 89.285L152.32 89.285L152.32 89.2849C152.253 89.2685 152.179 89.2504 152.093 89.2248V99.3355C150.198 99.6438 148.315 99.9521 146.432 100.26C144.926 100.507 143.42 100.753 141.908 101C141.9 86.5821 141.9 72.1861 141.9 57.7536ZM152.085 74.274V80.9828C152.085 81.4272 152.085 81.6498 152.193 81.7949C152.301 81.9407 152.517 82.0082 152.951 82.1436C155.221 82.8371 157.085 82.2093 158.21 80.3623C158.757 79.4717 159.127 78.5081 159.341 77.4933C159.911 74.8142 159.911 72.1131 159.534 69.412C159.371 68.2659 159.09 67.1417 158.409 66.1634C157.699 65.1414 156.716 64.6742 155.451 64.8713C154.223 65.0611 153.239 65.7108 152.352 66.5284C152.159 66.7036 152.078 66.8935 152.078 67.1636C152.089 68.9371 152.088 70.7147 152.086 72.4934V72.4937V72.4941V72.4944V72.4947V72.4951C152.086 73.088 152.085 73.681 152.085 74.274ZM199.024 76.7414H182.108C182.15 76.9496 182.188 77.1537 182.225 77.3544C182.311 77.8154 182.393 78.2583 182.522 78.6906C183.173 80.888 184.719 82.1363 187.034 82.3334C190.37 82.6108 193.558 82.0414 196.568 80.5814C196.648 80.5396 196.731 80.5002 196.823 80.4564C196.892 80.4237 196.966 80.3884 197.049 80.3477C197.152 80.9464 197.248 81.5231 197.345 82.1071C197.433 82.6559 197.52 83.2056 197.607 83.7556C197.774 84.815 197.941 85.8753 198.121 86.9325C198.166 87.2026 198.092 87.3194 197.877 87.4508C196.154 88.4729 194.282 89.0861 192.322 89.4511C189.046 90.0716 185.762 90.1665 182.492 89.4511C177.455 88.3415 174.289 85.2608 172.877 80.3915C172.026 77.4569 171.878 74.4565 172.107 71.4269C172.285 69.0835 172.788 66.8132 173.816 64.6742C175.865 60.4182 179.23 57.9069 183.986 57.2937C186.723 56.9433 189.401 57.1769 191.938 58.3376C194.578 59.5495 196.331 61.6008 197.493 64.1924C198.417 66.2511 198.913 68.4192 199.031 70.6531C199.1 72.0643 199.081 73.4792 199.063 74.8952L199.063 74.8986C199.055 75.452 199.048 76.0054 199.046 76.5589C199.058 76.5822 199.051 76.6148 199.036 76.6825L199.029 76.715L199.024 76.7414ZM189.6 70.5509C189.573 70.2874 189.55 70.0279 189.527 69.7715C189.482 69.2606 189.438 68.7617 189.364 68.2659C189.208 67.2074 188.95 66.1635 188.336 65.2582C187.618 64.207 186.472 63.7617 185.214 64.0464C184.12 64.2946 183.469 65.0392 183.025 65.9955C182.359 67.4337 182.196 68.9813 182.078 70.5509H189.6ZM79.87 66.3376L79.8701 66.3376L79.8701 66.3377L79.8707 66.3379C80.2161 66.4721 80.5635 66.6071 80.9148 66.7401C80.9148 66.7388 80.9154 66.7368 80.9163 66.7344C80.917 66.7327 80.9178 66.7307 80.9188 66.7285C80.9195 66.727 80.9203 66.7253 80.9211 66.7235L80.9212 66.7235L80.9212 66.7235C80.9261 66.7129 80.9328 66.6985 80.937 66.6817L80.9371 66.6815L80.9371 66.6812L80.9372 66.681L80.9372 66.6807L80.9372 66.6805C81.3292 64.3083 81.7211 61.9362 82.1205 59.564C82.1649 59.3158 82.0465 59.2282 81.8468 59.1406C80.0125 58.3376 78.1115 57.7755 76.1292 57.4689C73.5404 57.0674 70.959 56.9506 68.3776 57.5054C66.1586 57.9799 64.1394 58.8705 62.6527 60.608C60.0639 63.6376 59.768 67.0906 61.0402 70.7188C61.6985 72.6095 63.1778 73.8578 64.8716 74.8726C66.4873 75.8366 68.2562 76.484 70.0188 77.1291L70.0566 77.1429C71.1809 77.559 72.2904 77.9898 73.2224 78.7782C73.8733 79.3038 74.1913 79.9754 74.0286 80.8076C73.8659 81.6253 73.2742 82.0487 72.5123 82.2896C71.6395 82.5597 70.7371 82.5524 69.8421 82.4575C67.8525 82.2531 65.9515 81.7275 64.1024 80.9974C63.4347 80.7299 62.7772 80.4287 62.1161 80.1258L62.1161 80.1258C61.8031 79.9825 61.4894 79.8387 61.1733 79.698C61.1681 79.7188 61.161 79.7423 61.1533 79.7676C61.1394 79.8135 61.1237 79.8653 61.1142 79.917C60.8087 81.7579 60.509 83.6043 60.21 85.4465L60.086 86.2098L60.0826 86.2314C59.9159 87.2829 59.9154 87.286 60.9219 87.7355C63.8731 89.0569 66.9797 89.7504 70.2046 89.9183C72.4901 90.0351 74.7609 89.8599 76.9503 89.1299C79.5021 88.2757 81.4918 86.7719 82.6604 84.3263C83.4815 82.5962 83.6812 80.7638 83.5924 78.8804C83.4667 76.2669 82.4163 74.1206 80.3009 72.5073C79.0065 71.5145 77.542 70.8137 76.0331 70.215C75.5887 70.0386 75.1425 69.8647 74.696 69.6908C73.8497 69.361 73.0024 69.0309 72.1647 68.682C71.4546 68.3827 70.7667 68.0104 70.2638 67.3972C69.5241 66.4992 69.8126 65.3093 70.8999 64.8786C71.3215 64.7107 71.8022 64.6158 72.2608 64.6012C74.0434 64.5355 75.7668 64.8786 77.4458 65.4407C78.2599 65.712 79.0595 66.0227 79.87 66.3376ZM107.632 89.3051H117.817V89.3046C117.817 89.1296 117.817 88.9764 117.809 88.8233V78.53V78.5219C117.809 75.4074 117.809 72.3002 117.817 69.1857C117.817 69.0105 117.868 68.7915 117.979 68.6601C118.482 68.0761 119.096 67.6381 119.814 67.3388C121.175 66.7693 122.61 66.7036 124.059 66.7547C124.337 66.7659 124.615 66.79 124.89 66.8138L124.89 66.8138L124.89 66.8138C124.973 66.821 125.056 66.8282 125.139 66.835C125.146 66.813 125.152 66.7964 125.157 66.7829C125.164 66.7651 125.169 66.7526 125.169 66.7401C125.169 63.7617 125.169 60.7759 125.176 57.7974C125.176 57.593 125.11 57.5127 124.91 57.4981C124.692 57.4797 124.472 57.4535 124.253 57.4272C123.775 57.3698 123.296 57.3124 122.824 57.3375C120.191 57.4835 118.283 58.7099 117.262 61.1628C117.247 61.1977 117.225 61.2258 117.193 61.2656L117.193 61.2658C117.179 61.2843 117.162 61.3053 117.144 61.3307C117.096 61.0447 117.047 60.7622 116.999 60.4821L116.998 60.4776L116.998 60.4748C116.861 59.6777 116.728 58.9001 116.618 58.1186C116.574 57.7974 116.456 57.7317 116.152 57.7317C114.117 57.7426 112.086 57.7413 110.052 57.7399H110.052L110.045 57.7399C109.369 57.7394 108.693 57.739 108.016 57.739H107.632V89.3051ZM127.632 57.7609H137.861V89.2905H127.632V57.7609Z" fill="white"/>
</svg>
