<svg width="35" height="12" viewBox="0 0 35 12" fill="none" xmlns="http://www.w3.org/2000/svg">
<path fill-rule="evenodd" clip-rule="evenodd" d="M9.00036 11.4192H6.05787L3.85136 2.8781C3.74663 2.4852 3.52426 2.13786 3.19716 1.97416C2.38084 1.56276 1.48131 1.23535 0.5 1.07022V0.741388H5.24011C5.89432 0.741388 6.38497 1.23535 6.46675 1.80903L7.61161 7.97004L10.5527 0.741388H13.4134L9.00036 11.4192ZM15.0489 11.4192H12.27L14.5582 0.741388H17.3372L15.0489 11.4192ZM20.9324 3.69947C21.0142 3.12437 21.5048 2.79553 22.0773 2.79553C22.9768 2.71297 23.9567 2.8781 24.7744 3.28807L25.2651 0.98908C24.4473 0.660246 23.5478 0.495117 22.7315 0.495117C20.0343 0.495117 18.0717 1.97416 18.0717 4.02688C18.0717 5.58848 19.4619 6.40843 20.4432 6.9024C21.5048 7.39494 21.9137 7.72377 21.8319 8.21631C21.8319 8.95512 21.0142 9.28395 20.1979 9.28395C19.2166 9.28395 18.2353 9.03768 17.3372 8.62628L16.8465 10.9267C17.8278 11.3367 18.8895 11.5018 19.8708 11.5018C22.895 11.5829 24.7744 10.1053 24.7744 7.88747C24.7744 5.09452 20.9324 4.93082 20.9324 3.69947ZM34.5 11.4192L32.2935 0.741388H29.9234C29.4328 0.741388 28.9421 1.07022 28.7786 1.56276L24.6927 11.4192H27.5534L28.1244 9.85906H31.6393L31.9664 11.4192H34.5ZM30.3323 3.61692L31.1486 7.64122H28.8604L30.3323 3.61692Z" fill="#1A1F71"/>
</svg>
